<svg xmlns="http://www.w3.org/2000/svg" viewBox="0 0 960 540" role="img" aria-label="Demo Portal preview">
  <defs>
    <linearGradient id="bg" x1="0" y1="0" x2="1" y2="1">
      <stop offset="0%" stop-color="#13110d"/>
      <stop offset="100%" stop-color="#070605"/>
    </linearGradient>
  </defs>
  <rect width="960" height="540" fill="url(#bg)"/>
  <rect x="0" y="0" width="72" height="540" fill="#0e0c0a"/>
  <rect x="71" y="0" width="1" height="540" fill="rgba(255,255,255,0.08)"/>
  <rect x="16" y="28" width="40" height="40" rx="10" fill="rgba(255,255,255,0.05)"/>
  <rect x="16" y="84" width="40" height="40" rx="10" fill="rgba(193,169,104,0.22)" stroke="rgba(193,169,104,0.45)"/>
  <rect x="104" y="36" width="200" height="14" rx="7" fill="rgba(255,255,255,0.14)"/>
  <rect x="104" y="88" width="360" height="170" rx="14" fill="rgba(255,255,255,0.05)" stroke="rgba(255,255,255,0.08)"/>
  <rect x="496" y="88" width="360" height="170" rx="14" fill="rgba(255,255,255,0.05)" stroke="rgba(255,255,255,0.08)"/>
  <rect x="104" y="288" width="360" height="180" rx="14" fill="rgba(255,255,255,0.05)" stroke="rgba(255,255,255,0.08)"/>
  <rect x="496" y="288" width="360" height="180" rx="14" fill="rgba(193,169,104,0.12)" stroke="rgba(193,169,104,0.28)"/>
  <circle cx="180" cy="160" r="36" fill="rgba(193,169,104,0.2)"/>
  <circle cx="572" cy="160" r="36" fill="rgba(255,255,255,0.08)"/>
  <circle cx="180" cy="360" r="36" fill="rgba(255,255,255,0.08)"/>
  <circle cx="572" cy="360" r="36" fill="rgba(193,169,104,0.25)"/>
  <text x="888" y="500" text-anchor="end" fill="rgba(193,169,104,0.35)" font-family="Inter,Segoe UI,sans-serif" font-size="72" font-weight="700">DP</text>
</svg>
